<?xml version="1.0" standalone="no"?>
<!DOCTYPE svg PUBLIC "-//W3C//DTD SVG 20010904//EN"
 "http://www.w3.org/TR/2001/REC-SVG-20010904/DTD/svg10.dtd">
<svg version="1.0" xmlns="http://www.w3.org/2000/svg"
 width="1080.000000pt" height="1080.000000pt" viewBox="0 0 1080.000000 1080.000000"
 preserveAspectRatio="xMidYMid meet">

<g transform="translate(0.000000,1080.000000) scale(0.100000,-0.100000)"
fill="#000000" stroke="none">
<path d="M0 5400 l0 -5400 5400 0 5400 0 0 5400 0 5400 -5400 0 -5400 0 0
-5400z m5954 1994 c3 -9 6 -153 6 -320 l0 -304 634 0 c570 0 634 -2 640 -16 3
-9 4 -20 0 -25 -3 -5 -269 -9 -640 -9 l-634 0 0 -304 c0 -167 -3 -311 -6 -320
-3 -9 -15 -16 -25 -16 -18 0 -19 14 -21 309 l-3 310 -135 -78 c-74 -42 -293
-168 -486 -279 -193 -111 -360 -202 -370 -202 -42 0 -44 12 -44 302 l0 278
-652 2 c-645 3 -653 3 -653 23 0 20 8 20 650 25 l650 5 3 280 c2 290 3 294 45
295 20 0 78 -33 877 -493 l115 -67 3 298 c1 163 4 303 7 310 6 17 32 15 39 -4z
m-2116 -2011 c41 -30 63 -66 69 -111 l6 -42 -41 0 c-38 0 -40 2 -46 35 -16 86
-140 113 -208 45 -21 -22 -28 -38 -28 -69 0 -54 22 -72 125 -105 120 -38 165
-93 152 -186 -7 -56 -42 -106 -94 -137 -37 -22 -62 -27 -127 -31 -70 -3 -87 0
-126 20 -53 27 -90 78 -90 124 0 33 1 34 40 34 29 0 40 -4 40 -15 0 -29 30
-75 60 -90 59 -30 161 -10 195 39 8 11 15 40 15 64 0 56 -29 85 -106 108 -86
24 -132 51 -154 87 -50 82 6 202 112 241 59 21 170 16 206 -11z m2737 16 c25
-7 58 -29 86 -58 94 -93 104 -246 26 -394 -56 -107 -157 -167 -281 -167 -113
0 -178 36 -221 124 -50 103 -41 235 24 351 66 118 229 182 366 144z m1562 -17
c57 -30 86 -73 91 -139 l5 -54 -39 3 c-37 3 -39 5 -46 47 -15 91 -101 131
-213 100 -57 -16 -127 -89 -154 -162 -30 -82 -29 -197 2 -257 56 -110 221
-107 296 7 16 24 31 49 33 55 2 5 20 8 40 6 l37 -3 -20 -45 c-25 -56 -71 -105
-124 -133 -49 -25 -175 -35 -229 -17 -86 28 -136 104 -144 215 -11 175 83 334
230 387 70 24 176 20 235 -10z m-5360 -4 c-3 -13 -27 -142 -52 -288 -25 -146
-48 -273 -51 -282 -7 -23 -74 -26 -74 -3 0 8 23 141 50 296 28 155 50 285 50
290 0 5 18 9 41 9 38 0 41 -2 36 -22z m297 -50 c15 -40 58 -161 96 -268 38
-107 69 -193 70 -190 0 3 20 120 45 260 25 140 45 258 45 263 0 4 18 7 40 7
37 0 40 -2 35 -22 -2 -13 -25 -140 -50 -283 -25 -143 -47 -270 -50 -282 -5
-21 -11 -23 -63 -23 l-58 0 -63 178 c-108 302 -123 343 -127 339 -2 -2 -22
-111 -44 -243 -23 -131 -43 -247 -46 -256 -7 -23 -74 -26 -74 -3 0 8 23 141
50 296 28 155 50 285 50 290 0 5 27 9 59 9 l59 0 26 -72z m1436 42 c0 -38 -20
-43 -135 -38 -47 1 -85 3 -85 3 0 0 -22 -121 -48 -270 l-48 -270 -37 -3 c-25
-2 -37 1 -37 10 0 7 20 127 45 267 25 140 43 257 40 259 -3 3 -50 4 -105 3
l-100 -2 0 29 c0 16 3 32 7 35 3 4 118 7 255 7 l248 0 0 -30z m403 -257 c27
-159 51 -296 53 -305 5 -15 -2 -18 -39 -18 l-43 0 -13 94 c-7 51 -16 99 -20
105 -5 8 -41 11 -117 9 l-109 -3 -53 -102 -53 -103 -44 0 -43 0 140 263 c206
385 179 347 241 347 l52 0 48 -287z m707 265 c0 -46 -11 -50 -121 -46 l-103 3
-47 -269 c-27 -147 -50 -270 -52 -273 -3 -2 -20 -3 -39 -1 l-34 3 47 265 c26
146 45 267 43 270 -3 2 -51 4 -107 5 -96 0 -102 1 -99 20 7 46 -1 45 262 45
l250 0 0 -22z m399 6 c39 -11 57 -23 71 -47 24 -38 26 -104 6 -152 -15 -35
-87 -95 -114 -95 -12 0 -11 -5 6 -20 24 -23 29 -45 40 -182 l8 -98 -38 0 c-45
0 -46 3 -50 133 -4 118 -14 127 -138 127 l-87 0 -21 -123 c-12 -68 -22 -126
-22 -130 0 -4 -18 -7 -41 -7 -39 0 -40 1 -35 28 3 15 26 142 51 282 24 140 47
265 50 278 5 21 9 22 133 22 87 0 145 -5 181 -16z m1101 -250 c52 -147 95
-263 97 -258 1 5 20 113 43 239 22 127 43 242 46 258 5 23 11 27 40 27 27 0
34 -4 34 -20 0 -17 -77 -469 -96 -562 -5 -27 -8 -28 -64 -28 l-58 0 -30 83
c-16 45 -58 162 -92 260 -35 97 -65 175 -67 173 -3 -2 -25 -118 -49 -257 -24
-138 -46 -254 -48 -256 -2 -2 -19 -3 -38 -1 l-34 3 47 270 c26 149 50 285 54
303 6 32 6 32 64 32 l57 0 94 -266z m490 244 c0 -29 -98 -579 -104 -585 -2 -2
-19 -3 -38 -1 l-34 3 47 270 c26 149 51 285 54 303 5 29 9 32 40 32 30 0 35
-3 35 -22z m-3000 -1345 c0 -5 7 -105 15 -223 8 -118 15 -233 15 -255 l0 -40
30 65 c16 36 67 151 113 255 l84 190 55 3 56 3 5 -43 c4 -24 14 -135 22 -248
9 -113 17 -208 18 -213 1 -4 52 110 112 253 l110 260 43 0 c23 0 42 -3 42 -8
0 -4 -60 -140 -134 -302 l-134 -295 -54 -3 -55 -3 -18 228 c-10 125 -21 238
-24 251 -5 17 -32 -35 -117 -225 l-111 -248 -55 -3 -54 -3 -23 268 c-12 147
-25 285 -28 306 l-6 37 47 0 c25 0 46 -3 46 -7z m1210 -12 c0 -50 -2 -51 -170
-51 l-157 0 -17 -89 c-9 -49 -16 -94 -16 -100 0 -8 46 -11 146 -11 l146 0 -6
-22 c-3 -13 -6 -29 -6 -35 0 -10 -36 -13 -148 -13 l-149 0 -16 -97 c-10 -54
-17 -101 -17 -105 0 -5 73 -8 163 -8 l164 0 -5 -30 -4 -30 -204 0 c-157 0
-204 3 -204 13 0 6 23 139 50 294 28 155 50 287 50 293 0 6 68 10 200 10 190
0 200 -1 200 -19z m414 8 c22 -6 52 -24 68 -39 24 -24 28 -37 28 -82 0 -64
-23 -105 -72 -132 l-35 -19 37 -36 c45 -42 58 -93 41 -151 -16 -52 -41 -81
-97 -110 -45 -23 -62 -25 -206 -28 -87 -2 -158 -1 -158 2 0 12 101 581 105
594 6 16 233 17 289 1z"/>
<path d="M4900 6745 c0 -415 3 -565 11 -565 10 0 184 96 359 198 53 31 206
119 285 165 97 55 168 96 234 135 31 18 66 37 79 44 30 15 28 32 -5 49 -16 7
-44 23 -63 35 -19 11 -55 32 -80 46 -25 14 -90 51 -145 83 -55 32 -113 66
-130 75 -16 9 -91 52 -165 95 -264 153 -358 205 -369 205 -8 0 -11 -160 -11
-565z"/>
<path d="M6416 5340 c-106 -32 -176 -151 -176 -298 0 -61 5 -85 23 -116 37
-65 67 -81 152 -81 65 0 78 3 117 30 29 21 54 51 78 95 30 57 34 75 38 155 3
80 1 95 -20 134 -40 74 -125 107 -212 81z"/>
<path d="M4732 5202 c-34 -66 -62 -122 -62 -126 0 -3 39 -6 86 -6 l86 0 -5 33
c-4 17 -11 70 -18 117 -7 47 -15 89 -19 93 -4 4 -34 -46 -68 -111z"/>
<path d="M5788 5332 c-16 -3 -26 -44 -44 -176 l-7 -49 100 5 c139 7 177 31
189 122 6 39 3 48 -19 70 -27 26 -25 26 -167 31 -19 0 -42 -1 -52 -3z"/>
<path d="M6001 3898 c-7 -40 -14 -83 -18 -95 -5 -23 -3 -23 82 -23 131 0 176
29 177 113 1 64 -23 77 -137 77 l-92 0 -12 -72z"/>
<path d="M5965 3688 c-6 -27 -35 -188 -35 -194 0 -7 134 -3 178 5 76 15 125
86 108 156 -10 40 -53 55 -155 55 -86 0 -91 -1 -96 -22z"/>
</g>
</svg>
